<svg xmlns="http://www.w3.org/2000/svg" version="1.1" xmlns:xlink="http://www.w3.org/1999/xlink" xmlns:svgjs="http://svgjs.dev/svgjs" width="1440" height="560" preserveAspectRatio="none" viewBox="0 0 1440 560"><g mask="url(&quot;#SvgjsMask1000&quot;)" fill="none"><rect width="1440" height="560" x="0" y="0" fill="#0e2a47"></rect><path d="M289.43 649.53 L199.39999999999998 662.3L277.84100679938877 689.3410067993888z" fill="#d3b714"></path><path d="M1045.01 295.23a5.6 5.6 0 1 0-9.04 6.62 5.6 5.6 0 1 0 9.04-6.62zM1032.1 304.69a5.6 5.6 0 1 0-9.03 6.62 5.6 5.6 0 1 0 9.03-6.62zM1019.2 314.15a5.6 5.6 0 1 0-9.04 6.62 5.6 5.6 0 1 0 9.04-6.62zM1006.29 323.61a5.6 5.6 0 1 0-9.03 6.62 5.6 5.6 0 1 0 9.03-6.62zM1061.36 263.41a5.6 5.6 0 1 0-9.04 6.62 5.6 5.6 0 1 0 9.04-6.62zM1048.45 272.87a5.6 5.6 0 1 0-9.03 6.62 5.6 5.6 0 1 0 9.03-6.62zM1035.55 282.32a5.6 5.6 0 1 0-9.04 6.63 5.6 5.6 0 1 0 9.04-6.63zM1022.64 291.78a5.6 5.6 0 1 0-9.03 6.62 5.6 5.6 0 1 0 9.03-6.62z" fill="#d3b714"></path><circle r="72.41691977103781" cx="1143.68" cy="207.08" stroke="#d3b714" stroke-width="1"></circle><path d="M132.75 576.1700000000001 L149.42000000000002 467.8L207.86207225062142 588.7620722506215z" fill="#e73635"></path><path d="M387.45 465.07 L483.02 497.87L495.7121148897846 420.99288511021547z" fill="#037b0b"></path><circle r="46.666666666666664" cx="503.12" cy="4.89" stroke="#e73635" stroke-width="2.4"></circle><circle r="73.11965957263386" cx="421.16" cy="137.73" stroke="#e73635" stroke-width="2.75"></circle><path d="M1212.47 98.97a5.6 5.6 0 1 0 7.56-8.26 5.6 5.6 0 1 0-7.56 8.26zM1223.27 87.17a5.6 5.6 0 1 0 7.57-8.26 5.6 5.6 0 1 0-7.57 8.26zM1234.08 75.37a5.6 5.6 0 1 0 7.57-8.26 5.6 5.6 0 1 0-7.57 8.26zM1244.89 63.57a5.6 5.6 0 1 0 7.56-8.26 5.6 5.6 0 1 0-7.56 8.26zM1202.65 133.37a5.6 5.6 0 1 0 7.56-8.26 5.6 5.6 0 1 0-7.56 8.26zM1213.46 121.57a5.6 5.6 0 1 0 7.56-8.26 5.6 5.6 0 1 0-7.56 8.26zM1224.26 109.77a5.6 5.6 0 1 0 7.57-8.26 5.6 5.6 0 1 0-7.57 8.26zM1235.07 97.97a5.6 5.6 0 1 0 7.57-8.25 5.6 5.6 0 1 0-7.57 8.25z" stroke="#e73635" stroke-width="2.39"></path><path d="M140.69 247.10999999999999 L245.87 254.06L255.5670778440201 188.29792215597988z" stroke="#e73635" stroke-width="1.23" stroke-dasharray="4, 4"></path><rect width="312" height="312" clip-path="url(&quot;#SvgjsClipPath1001&quot;)" x="633.29" y="394.04" fill="url(&quot;#SvgjsPattern1002&quot;)" transform="rotate(58.41, 789.29, 550.04)"></rect><rect width="84" height="84" clip-path="url(&quot;#SvgjsClipPath1003&quot;)" x="-34.14" y="358.46" fill="url(&quot;#SvgjsPattern1004&quot;)" transform="rotate(231.28, 7.86, 400.46)"></rect><path d="M821.19 194.45a5.6 5.6 0 1 0-7.52-8.3 5.6 5.6 0 1 0 7.52 8.3zM810.44 182.6a5.6 5.6 0 1 0-7.52-8.3 5.6 5.6 0 1 0 7.52 8.3zM799.69 170.75a5.6 5.6 0 1 0-7.53-8.29 5.6 5.6 0 1 0 7.53 8.29zM788.94 158.9a5.6 5.6 0 1 0-7.53-8.29 5.6 5.6 0 1 0 7.53 8.29z" stroke="#d3b714" stroke-width="1" stroke-dasharray="3, 3"></path></g><defs><mask id="SvgjsMask1000"><rect width="1440" height="560" fill="#ffffff"></rect></mask><pattern x="0" y="0" width="312" height="6" patternUnits="userSpaceOnUse" id="SvgjsPattern1002"><rect width="312" height="3" x="0" y="0" fill="#d3b714"></rect><rect width="312" height="3" x="0" y="3" fill="rgba(0, 0, 0, 0)"></rect></pattern><clipPath id="SvgjsClipPath1001"><circle r="78" cx="789.29" cy="550.04"></circle></clipPath><pattern x="0" y="0" width="6" height="6" patternUnits="userSpaceOnUse" id="SvgjsPattern1004"><path d="M0 6L3 0L6 6" stroke="#d3b714" fill="none"></path></pattern><clipPath id="SvgjsClipPath1003"><circle r="21" cx="7.86" cy="400.46"></circle></clipPath></defs></svg>