<svg xmlns="http://www.w3.org/2000/svg" version="1.1" xmlns:xlink="http://www.w3.org/1999/xlink" xmlns:svgjs="http://svgjs.dev/svgjs" width="1440" height="560" preserveAspectRatio="none" viewBox="0 0 1440 560"><g mask="url(&quot;#SvgjsMask1000&quot;)" fill="none"><rect width="1440" height="560" x="0" y="0" fill="#0e2a47"></rect><path d="M21.8 -33.04L86.75 4.46L86.75 79.46L21.8 116.96L-43.15 79.46L-43.15 4.46zM21.8 416.96L86.75 454.46L86.75 529.46L21.8 566.96L-43.15 529.46L-43.15 454.46zM151.71 191.96L216.66 229.46L216.66 304.46L151.71 341.96L86.75 304.46L86.75 229.46zM151.71 416.96L216.66 454.46L216.66 529.46L151.71 566.96L86.75 529.46L86.75 454.46zM216.66 529.46L281.62 566.96L281.62 641.96L216.66 679.46L151.71 641.96L151.71 566.96zM346.57 79.46L411.52 116.96L411.52 191.96L346.57 229.46L281.62 191.96L281.62 116.96zM281.62 191.96L346.57 229.46L346.57 304.46L281.62 341.96L216.66 304.46L216.66 229.46zM346.57 304.46L411.52 341.96L411.52 416.96L346.57 454.46L281.62 416.96L281.62 341.96zM411.52 191.96L476.48 229.46L476.48 304.46L411.52 341.96L346.57 304.46L346.57 229.46zM411.52 416.96L476.48 454.46L476.48 529.46L411.52 566.96L346.57 529.46L346.57 454.46zM476.48 529.46L541.43 566.96L541.43 641.96L476.48 679.46L411.52 641.96L411.52 566.96zM606.38 529.46L671.34 566.96L671.34 641.96L606.38 679.46L541.43 641.96L541.43 566.96zM671.34 -33.04L736.29 4.46L736.29 79.46L671.34 116.96L606.38 79.46L606.38 4.46zM671.34 191.96L736.29 229.46L736.29 304.46L671.34 341.96L606.38 304.46L606.38 229.46zM736.29 304.46L801.25 341.96L801.25 416.96L736.29 454.46L671.34 416.96L671.34 341.96zM736.29 529.46L801.25 566.96L801.25 641.96L736.29 679.46L671.34 641.96L671.34 566.96zM866.2 79.46L931.15 116.96L931.15 191.96L866.2 229.46L801.24 191.96L801.24 116.96zM931.15 -33.04L996.11 4.46L996.11 79.46L931.15 116.96L866.2 79.46L866.2 4.46zM931.15 191.96L996.11 229.46L996.11 304.46L931.15 341.96L866.2 304.46L866.2 229.46zM996.11 529.46L1061.06 566.96L1061.06 641.96L996.11 679.46L931.15 641.96L931.15 566.96zM1126.01 79.46L1190.97 116.96L1190.97 191.96L1126.01 229.46L1061.06 191.96L1061.06 116.96zM1061.06 191.96L1126.01 229.46L1126.01 304.46L1061.06 341.96L996.11 304.46L996.11 229.46zM1126.01 304.46L1190.97 341.96L1190.97 416.96L1126.01 454.46L1061.06 416.96L1061.06 341.96zM1061.06 416.96L1126.01 454.46L1126.01 529.46L1061.06 566.96L996.11 529.46L996.11 454.46zM1126.01 529.46L1190.97 566.96L1190.97 641.96L1126.01 679.46L1061.06 641.96L1061.06 566.96zM1255.92 79.46L1320.87 116.96L1320.87 191.96L1255.92 229.46L1190.97 191.96L1190.97 116.96zM1190.97 191.96L1255.92 229.46L1255.92 304.46L1190.97 341.96L1126.01 304.46L1126.01 229.46zM1255.92 529.46L1320.87 566.96L1320.87 641.96L1255.92 679.46L1190.97 641.96L1190.97 566.96zM1320.88 -33.04L1385.83 4.46L1385.83 79.46L1320.88 116.96L1255.92 79.46L1255.92 4.46zM1385.83 79.46L1450.78 116.96L1450.78 191.96L1385.83 229.46L1320.88 191.96L1320.88 116.96zM1320.88 191.96L1385.83 229.46L1385.83 304.46L1320.88 341.96L1255.92 304.46L1255.92 229.46zM1385.83 304.46L1450.78 341.96L1450.78 416.96L1385.83 454.46L1320.88 416.96L1320.88 341.96zM1450.78 416.96L1515.74 454.46L1515.74 529.46L1450.78 566.96L1385.83 529.46L1385.83 454.46zM1515.74 529.46L1580.69 566.96L1580.69 641.96L1515.74 679.46L1450.78 641.96L1450.78 566.96z" stroke="#03305d" stroke-width="2"></path><path d="M14.3 -33.04 a7.5 7.5 0 1 0 15 0 a7.5 7.5 0 1 0 -15 0zM79.25 4.46 a7.5 7.5 0 1 0 15 0 a7.5 7.5 0 1 0 -15 0zM79.25 79.46 a7.5 7.5 0 1 0 15 0 a7.5 7.5 0 1 0 -15 0zM14.3 116.96 a7.5 7.5 0 1 0 15 0 a7.5 7.5 0 1 0 -15 0zM-50.65 79.46 a7.5 7.5 0 1 0 15 0 a7.5 7.5 0 1 0 -15 0zM-50.65 4.46 a7.5 7.5 0 1 0 15 0 a7.5 7.5 0 1 0 -15 0zM14.3 416.96 a7.5 7.5 0 1 0 15 0 a7.5 7.5 0 1 0 -15 0zM79.25 454.46 a7.5 7.5 0 1 0 15 0 a7.5 7.5 0 1 0 -15 0zM79.25 529.46 a7.5 7.5 0 1 0 15 0 a7.5 7.5 0 1 0 -15 0zM14.3 566.96 a7.5 7.5 0 1 0 15 0 a7.5 7.5 0 1 0 -15 0zM-50.65 529.46 a7.5 7.5 0 1 0 15 0 a7.5 7.5 0 1 0 -15 0zM-50.65 454.46 a7.5 7.5 0 1 0 15 0 a7.5 7.5 0 1 0 -15 0zM144.21 191.96 a7.5 7.5 0 1 0 15 0 a7.5 7.5 0 1 0 -15 0zM209.16 229.46 a7.5 7.5 0 1 0 15 0 a7.5 7.5 0 1 0 -15 0zM209.16 304.46 a7.5 7.5 0 1 0 15 0 a7.5 7.5 0 1 0 -15 0zM144.21 341.96 a7.5 7.5 0 1 0 15 0 a7.5 7.5 0 1 0 -15 0zM79.25 304.46 a7.5 7.5 0 1 0 15 0 a7.5 7.5 0 1 0 -15 0zM79.25 229.46 a7.5 7.5 0 1 0 15 0 a7.5 7.5 0 1 0 -15 0zM144.21 416.96 a7.5 7.5 0 1 0 15 0 a7.5 7.5 0 1 0 -15 0zM209.16 454.46 a7.5 7.5 0 1 0 15 0 a7.5 7.5 0 1 0 -15 0zM209.16 529.46 a7.5 7.5 0 1 0 15 0 a7.5 7.5 0 1 0 -15 0zM144.21 566.96 a7.5 7.5 0 1 0 15 0 a7.5 7.5 0 1 0 -15 0zM274.12 566.96 a7.5 7.5 0 1 0 15 0 a7.5 7.5 0 1 0 -15 0zM274.12 641.96 a7.5 7.5 0 1 0 15 0 a7.5 7.5 0 1 0 -15 0zM209.16 679.46 a7.5 7.5 0 1 0 15 0 a7.5 7.5 0 1 0 -15 0zM144.21 641.96 a7.5 7.5 0 1 0 15 0 a7.5 7.5 0 1 0 -15 0zM339.07 79.46 a7.5 7.5 0 1 0 15 0 a7.5 7.5 0 1 0 -15 0zM404.02 116.96 a7.5 7.5 0 1 0 15 0 a7.5 7.5 0 1 0 -15 0zM404.02 191.96 a7.5 7.5 0 1 0 15 0 a7.5 7.5 0 1 0 -15 0zM339.07 229.46 a7.5 7.5 0 1 0 15 0 a7.5 7.5 0 1 0 -15 0zM274.12 191.96 a7.5 7.5 0 1 0 15 0 a7.5 7.5 0 1 0 -15 0zM274.12 116.96 a7.5 7.5 0 1 0 15 0 a7.5 7.5 0 1 0 -15 0zM339.07 304.46 a7.5 7.5 0 1 0 15 0 a7.5 7.5 0 1 0 -15 0zM274.12 341.96 a7.5 7.5 0 1 0 15 0 a7.5 7.5 0 1 0 -15 0zM404.02 341.96 a7.5 7.5 0 1 0 15 0 a7.5 7.5 0 1 0 -15 0zM404.02 416.96 a7.5 7.5 0 1 0 15 0 a7.5 7.5 0 1 0 -15 0zM339.07 454.46 a7.5 7.5 0 1 0 15 0 a7.5 7.5 0 1 0 -15 0zM274.12 416.96 a7.5 7.5 0 1 0 15 0 a7.5 7.5 0 1 0 -15 0zM468.98 229.46 a7.5 7.5 0 1 0 15 0 a7.5 7.5 0 1 0 -15 0zM468.98 304.46 a7.5 7.5 0 1 0 15 0 a7.5 7.5 0 1 0 -15 0zM468.98 454.46 a7.5 7.5 0 1 0 15 0 a7.5 7.5 0 1 0 -15 0zM468.98 529.46 a7.5 7.5 0 1 0 15 0 a7.5 7.5 0 1 0 -15 0zM404.02 566.96 a7.5 7.5 0 1 0 15 0 a7.5 7.5 0 1 0 -15 0zM339.07 529.46 a7.5 7.5 0 1 0 15 0 a7.5 7.5 0 1 0 -15 0zM533.93 566.96 a7.5 7.5 0 1 0 15 0 a7.5 7.5 0 1 0 -15 0zM533.93 641.96 a7.5 7.5 0 1 0 15 0 a7.5 7.5 0 1 0 -15 0zM468.98 679.46 a7.5 7.5 0 1 0 15 0 a7.5 7.5 0 1 0 -15 0zM404.02 641.96 a7.5 7.5 0 1 0 15 0 a7.5 7.5 0 1 0 -15 0zM598.88 529.46 a7.5 7.5 0 1 0 15 0 a7.5 7.5 0 1 0 -15 0zM663.84 566.96 a7.5 7.5 0 1 0 15 0 a7.5 7.5 0 1 0 -15 0zM663.84 641.96 a7.5 7.5 0 1 0 15 0 a7.5 7.5 0 1 0 -15 0zM598.88 679.46 a7.5 7.5 0 1 0 15 0 a7.5 7.5 0 1 0 -15 0zM663.84 -33.04 a7.5 7.5 0 1 0 15 0 a7.5 7.5 0 1 0 -15 0zM728.79 4.46 a7.5 7.5 0 1 0 15 0 a7.5 7.5 0 1 0 -15 0zM728.79 79.46 a7.5 7.5 0 1 0 15 0 a7.5 7.5 0 1 0 -15 0zM663.84 116.96 a7.5 7.5 0 1 0 15 0 a7.5 7.5 0 1 0 -15 0zM598.88 79.46 a7.5 7.5 0 1 0 15 0 a7.5 7.5 0 1 0 -15 0zM598.88 4.46 a7.5 7.5 0 1 0 15 0 a7.5 7.5 0 1 0 -15 0zM663.84 191.96 a7.5 7.5 0 1 0 15 0 a7.5 7.5 0 1 0 -15 0zM728.79 229.46 a7.5 7.5 0 1 0 15 0 a7.5 7.5 0 1 0 -15 0zM728.79 304.46 a7.5 7.5 0 1 0 15 0 a7.5 7.5 0 1 0 -15 0zM663.84 341.96 a7.5 7.5 0 1 0 15 0 a7.5 7.5 0 1 0 -15 0zM598.88 304.46 a7.5 7.5 0 1 0 15 0 a7.5 7.5 0 1 0 -15 0zM598.88 229.46 a7.5 7.5 0 1 0 15 0 a7.5 7.5 0 1 0 -15 0zM793.75 341.96 a7.5 7.5 0 1 0 15 0 a7.5 7.5 0 1 0 -15 0zM793.75 416.96 a7.5 7.5 0 1 0 15 0 a7.5 7.5 0 1 0 -15 0zM728.79 454.46 a7.5 7.5 0 1 0 15 0 a7.5 7.5 0 1 0 -15 0zM663.84 416.96 a7.5 7.5 0 1 0 15 0 a7.5 7.5 0 1 0 -15 0zM728.79 529.46 a7.5 7.5 0 1 0 15 0 a7.5 7.5 0 1 0 -15 0zM793.75 566.96 a7.5 7.5 0 1 0 15 0 a7.5 7.5 0 1 0 -15 0zM793.75 641.96 a7.5 7.5 0 1 0 15 0 a7.5 7.5 0 1 0 -15 0zM728.79 679.46 a7.5 7.5 0 1 0 15 0 a7.5 7.5 0 1 0 -15 0zM858.7 79.46 a7.5 7.5 0 1 0 15 0 a7.5 7.5 0 1 0 -15 0zM923.65 116.96 a7.5 7.5 0 1 0 15 0 a7.5 7.5 0 1 0 -15 0zM923.65 191.96 a7.5 7.5 0 1 0 15 0 a7.5 7.5 0 1 0 -15 0zM858.7 229.46 a7.5 7.5 0 1 0 15 0 a7.5 7.5 0 1 0 -15 0zM793.74 191.96 a7.5 7.5 0 1 0 15 0 a7.5 7.5 0 1 0 -15 0zM793.74 116.96 a7.5 7.5 0 1 0 15 0 a7.5 7.5 0 1 0 -15 0zM923.65 -33.04 a7.5 7.5 0 1 0 15 0 a7.5 7.5 0 1 0 -15 0zM988.61 4.46 a7.5 7.5 0 1 0 15 0 a7.5 7.5 0 1 0 -15 0zM988.61 79.46 a7.5 7.5 0 1 0 15 0 a7.5 7.5 0 1 0 -15 0zM858.7 4.46 a7.5 7.5 0 1 0 15 0 a7.5 7.5 0 1 0 -15 0zM988.61 229.46 a7.5 7.5 0 1 0 15 0 a7.5 7.5 0 1 0 -15 0zM988.61 304.46 a7.5 7.5 0 1 0 15 0 a7.5 7.5 0 1 0 -15 0zM923.65 341.96 a7.5 7.5 0 1 0 15 0 a7.5 7.5 0 1 0 -15 0zM858.7 304.46 a7.5 7.5 0 1 0 15 0 a7.5 7.5 0 1 0 -15 0zM988.61 529.46 a7.5 7.5 0 1 0 15 0 a7.5 7.5 0 1 0 -15 0zM1053.56 566.96 a7.5 7.5 0 1 0 15 0 a7.5 7.5 0 1 0 -15 0zM1053.56 641.96 a7.5 7.5 0 1 0 15 0 a7.5 7.5 0 1 0 -15 0zM988.61 679.46 a7.5 7.5 0 1 0 15 0 a7.5 7.5 0 1 0 -15 0zM923.65 641.96 a7.5 7.5 0 1 0 15 0 a7.5 7.5 0 1 0 -15 0zM923.65 566.96 a7.5 7.5 0 1 0 15 0 a7.5 7.5 0 1 0 -15 0zM1118.51 79.46 a7.5 7.5 0 1 0 15 0 a7.5 7.5 0 1 0 -15 0zM1183.47 116.96 a7.5 7.5 0 1 0 15 0 a7.5 7.5 0 1 0 -15 0zM1183.47 191.96 a7.5 7.5 0 1 0 15 0 a7.5 7.5 0 1 0 -15 0zM1118.51 229.46 a7.5 7.5 0 1 0 15 0 a7.5 7.5 0 1 0 -15 0zM1053.56 191.96 a7.5 7.5 0 1 0 15 0 a7.5 7.5 0 1 0 -15 0zM1053.56 116.96 a7.5 7.5 0 1 0 15 0 a7.5 7.5 0 1 0 -15 0zM1118.51 304.46 a7.5 7.5 0 1 0 15 0 a7.5 7.5 0 1 0 -15 0zM1053.56 341.96 a7.5 7.5 0 1 0 15 0 a7.5 7.5 0 1 0 -15 0zM1183.47 341.96 a7.5 7.5 0 1 0 15 0 a7.5 7.5 0 1 0 -15 0zM1183.47 416.96 a7.5 7.5 0 1 0 15 0 a7.5 7.5 0 1 0 -15 0zM1118.51 454.46 a7.5 7.5 0 1 0 15 0 a7.5 7.5 0 1 0 -15 0zM1053.56 416.96 a7.5 7.5 0 1 0 15 0 a7.5 7.5 0 1 0 -15 0zM1118.51 529.46 a7.5 7.5 0 1 0 15 0 a7.5 7.5 0 1 0 -15 0zM988.61 454.46 a7.5 7.5 0 1 0 15 0 a7.5 7.5 0 1 0 -15 0zM1183.47 566.96 a7.5 7.5 0 1 0 15 0 a7.5 7.5 0 1 0 -15 0zM1183.47 641.96 a7.5 7.5 0 1 0 15 0 a7.5 7.5 0 1 0 -15 0zM1118.51 679.46 a7.5 7.5 0 1 0 15 0 a7.5 7.5 0 1 0 -15 0zM1248.42 79.46 a7.5 7.5 0 1 0 15 0 a7.5 7.5 0 1 0 -15 0zM1313.37 116.96 a7.5 7.5 0 1 0 15 0 a7.5 7.5 0 1 0 -15 0zM1313.37 191.96 a7.5 7.5 0 1 0 15 0 a7.5 7.5 0 1 0 -15 0zM1248.42 229.46 a7.5 7.5 0 1 0 15 0 a7.5 7.5 0 1 0 -15 0zM1248.42 304.46 a7.5 7.5 0 1 0 15 0 a7.5 7.5 0 1 0 -15 0zM1248.42 529.46 a7.5 7.5 0 1 0 15 0 a7.5 7.5 0 1 0 -15 0zM1313.37 566.96 a7.5 7.5 0 1 0 15 0 a7.5 7.5 0 1 0 -15 0zM1313.37 641.96 a7.5 7.5 0 1 0 15 0 a7.5 7.5 0 1 0 -15 0zM1248.42 679.46 a7.5 7.5 0 1 0 15 0 a7.5 7.5 0 1 0 -15 0zM1313.38 -33.04 a7.5 7.5 0 1 0 15 0 a7.5 7.5 0 1 0 -15 0zM1378.33 4.46 a7.5 7.5 0 1 0 15 0 a7.5 7.5 0 1 0 -15 0zM1378.33 79.46 a7.5 7.5 0 1 0 15 0 a7.5 7.5 0 1 0 -15 0zM1313.38 116.96 a7.5 7.5 0 1 0 15 0 a7.5 7.5 0 1 0 -15 0zM1248.42 4.46 a7.5 7.5 0 1 0 15 0 a7.5 7.5 0 1 0 -15 0zM1443.28 116.96 a7.5 7.5 0 1 0 15 0 a7.5 7.5 0 1 0 -15 0zM1443.28 191.96 a7.5 7.5 0 1 0 15 0 a7.5 7.5 0 1 0 -15 0zM1378.33 229.46 a7.5 7.5 0 1 0 15 0 a7.5 7.5 0 1 0 -15 0zM1313.38 191.96 a7.5 7.5 0 1 0 15 0 a7.5 7.5 0 1 0 -15 0zM1378.33 304.46 a7.5 7.5 0 1 0 15 0 a7.5 7.5 0 1 0 -15 0zM1313.38 341.96 a7.5 7.5 0 1 0 15 0 a7.5 7.5 0 1 0 -15 0zM1443.28 341.96 a7.5 7.5 0 1 0 15 0 a7.5 7.5 0 1 0 -15 0zM1443.28 416.96 a7.5 7.5 0 1 0 15 0 a7.5 7.5 0 1 0 -15 0zM1378.33 454.46 a7.5 7.5 0 1 0 15 0 a7.5 7.5 0 1 0 -15 0zM1313.38 416.96 a7.5 7.5 0 1 0 15 0 a7.5 7.5 0 1 0 -15 0zM1508.24 454.46 a7.5 7.5 0 1 0 15 0 a7.5 7.5 0 1 0 -15 0zM1508.24 529.46 a7.5 7.5 0 1 0 15 0 a7.5 7.5 0 1 0 -15 0zM1443.28 566.96 a7.5 7.5 0 1 0 15 0 a7.5 7.5 0 1 0 -15 0zM1378.33 529.46 a7.5 7.5 0 1 0 15 0 a7.5 7.5 0 1 0 -15 0zM1573.19 566.96 a7.5 7.5 0 1 0 15 0 a7.5 7.5 0 1 0 -15 0zM1573.19 641.96 a7.5 7.5 0 1 0 15 0 a7.5 7.5 0 1 0 -15 0zM1508.24 679.46 a7.5 7.5 0 1 0 15 0 a7.5 7.5 0 1 0 -15 0zM1443.28 641.96 a7.5 7.5 0 1 0 15 0 a7.5 7.5 0 1 0 -15 0z" fill="#03305d"></path><path d="M38.43 141.5L81.73 166.5L81.73 216.5L38.43 241.5L-4.87 216.5L-4.87 166.5zM38.43 291.5L81.73 316.5L81.73 366.5L38.43 391.5L-4.87 366.5L-4.87 316.5zM211.64 291.5L254.94 316.5L254.94 366.5L211.64 391.5L168.34 366.5L168.34 316.5zM428.15 216.5L471.46 241.5L471.46 291.5L428.15 316.5L384.85 291.5L384.85 241.5zM817.88 441.5L861.18 466.5L861.18 516.5L817.88 541.5L774.57 516.5L774.57 466.5zM904.48 291.5L947.78 316.5L947.78 366.5L904.48 391.5L861.18 366.5L861.18 316.5zM1034.39 216.5L1077.69 241.5L1077.69 291.5L1034.39 316.5L991.09 291.5L991.09 241.5zM1077.69 141.5L1120.99 166.5L1120.99 216.5L1077.69 241.5L1034.39 216.5L1034.39 166.5zM1164.3 -8.5L1207.6 16.5L1207.6 66.5L1164.3 91.5L1120.99 66.5L1120.99 16.5zM1207.6 216.5L1250.9 241.5L1250.9 291.5L1207.6 316.5L1164.3 291.5L1164.3 241.5zM1207.6 516.5L1250.9 541.5L1250.9 591.5L1207.6 616.5L1164.3 591.5L1164.3 541.5zM1294.2 516.5L1337.51 541.5L1337.51 591.5L1294.2 616.5L1250.9 591.5L1250.9 541.5zM1380.81 516.5L1424.11 541.5L1424.11 591.5L1380.81 616.5L1337.51 591.5L1337.51 541.5zM1424.11 141.5L1467.41 166.5L1467.41 216.5L1424.11 241.5L1380.81 216.5L1380.81 166.5zM1467.41 216.5L1510.72 241.5L1510.72 291.5L1467.41 316.5L1424.11 291.5L1424.11 241.5zM1424.11 291.5L1467.41 316.5L1467.41 366.5L1424.11 391.5L1380.81 366.5L1380.81 316.5z" stroke="rgba(6, 80, 156, 0.93)" stroke-width="2"></path></g><defs><mask id="SvgjsMask1000"><rect width="1440" height="560" fill="#ffffff"></rect></mask></defs></svg>